# xmcd CD database file
#
# Track frame offsets:
#	150
#	44733
#	65348
#	97982
#	112041
#	130997
#	180342
#	210177
#	237351
#	303815
#
# Disc length: 4379 seconds
#
# Revision: 0
# Processed by: cddbd v1.5.1PL0 Copyright (c) Steve Scherf et al.
# Submitted via: CDex 1.51
#
DISCID=8011190a
DTITLE=Chris Duarte - Amplitude
DYEAR=2001
DGENRE=Blues
TTITLE0=Drivin' South
TTITLE1=Crazy
TTITLE2=Cleopatra
TTITLE3=Brand New Day
TTITLE4=Baddness
TTITLE5=People Get Ready
TTITLE6=Metaphor Song
TTITLE7=Hey Joe
TTITLE8=Watch Out
TTITLE9=We Wish You A Merry Christmas
EXTD=YEAR: 2001
EXTT0=
EXTT1=
EXTT2=
EXTT3=
EXTT4=
EXTT5=
EXTT6=
EXTT7=
EXTT8=
EXTT9=
PLAYORDER=
